{"title":"The Hitchhikers Guide to the Galaxy (2005) DVDRip XviD peaSoup","uid":7743426,"size":1223952022,"categoryP":"video","categoryS":"movies","magnet":"?xt=urn:btih:117411329ce863c5fab9c47afbdef0e1e3a5b035&amp;dn=The+Hitchhikers+Guide+to+the+Galaxy+%282005%29+DVDRip+XviD+peaSoup&amp;tr=udp%3A%2F%2Ftracker.openbittorrent.com%3A80&amp;tr=udp%3A%2F%2Fopen.demonii.com%3A1337&amp;tr=udp%3A%2F%2Ftracker.coppersurfer.tk%3A6969&amp;tr=udp%3A%2F%2Fexodus.desync.com%3A6969","seeders":0,"leechers":0,"uploader":"peaSoup","files":-1,"time":1350688930,"description":"Mere seconds before the Earth is to be demolished by an alien construction crew, journeyman Arthur Dent is swept off the planet by his friend Ford Prefect, a researcher penning a new edition of &quot;The Hitchhiker's Guide to the Galaxy.&quot; Format                                   : AVI\nFormat/Info                              : Audio Video Interleave\nFormat profile                           : OpenDML\nFile size                                : 1.13 GiB\nDuration                                 : 1h 44mn\nOverall bit rate                         : 1 548 Kbps\nMovie name                               : The Hitchhikers Guide to the Galaxy (2005) DVDRip XviD peaSoup\nWriting application                      : Lavf53.21.0\nOriginal source form/Name                : HGG0EUW1\n\nVideo\nID                                       : 0\nFormat                                   : MPEG-4 Visual\nFormat profile                           : Advanced Simple@L5\nFormat settings, BVOP                    : 2\nFormat settings, QPel                    : No\nFormat settings, GMC                     : No warppoints\nFormat settings, Matrix                  : Default (H.263)\nMuxing mode                              : Packed bitstream\nCodec ID                                 : XVID\nCodec ID/Hint                            : XviD\nDuration                                 : 1h 44mn\nBit rate                                 : 1 086 Kbps\nWidth                                    : 720 pixels\nHeight                                   : 302 pixels\nDisplay aspect ratio                     : 2.40:1\nFrame rate                               : 25.000 fps\nColor space                              : YUV\nChroma subsampling                       : 4:2:0\nBit depth                                : 8 bits\nScan type                                : Progressive\nCompression mode                         : Lossy\nBits/(Pixel*Frame)                       : 0.200\nStream size                              : 811 MiB (70%)\nWriting library                          : XviD 1.2.1 (UTC 2008-12-04)\n\nAudio\nID                                       : 1\nFormat                                   : AC-3\nFormat/Info                              : Audio Coding 3\nMode extension                           : CM (complete main)\nFormat settings, Endianness              : Big\nCodec ID                                 : 2000\nDuration                                 : 1h 44mn\nBit rate mode                            : Constant\nBit rate                                 : 448 Kbps\nChannel(s)                               : 6 channels\nChannel positions                        : Front: L C R, Side: L R, LFE\nSampling rate                            : 48.0 KHz\nBit depth                                : 16 bits\nCompression mode                         : Lossy\nStream size                              : 334 MiB (29%)\nAlignment                                : Aligned on interleaves\nInterleave, duration                     : 32 ms (0.80 video frame)\n\n","torrent":{"xt":"urn:btih:117411329ce863c5fab9c47afbdef0e1e3a5b035","amp;dn":"The+Hitchhikers+Guide+to+the+Galaxy+%282005%29+DVDRip+XviD+peaSoup","amp;tr":["udp%3A%2F%2Ftracker.openbittorrent.com%3A80","udp%3A%2F%2Fopen.demonii.com%3A1337","udp%3A%2F%2Ftracker.coppersurfer.tk%3A6969","udp%3A%2F%2Fexodus.desync.com%3A6969"],"infoHash":"117411329ce863c5fab9c47afbdef0e1e3a5b035","infoHashBuffer":{"type":"Buffer","data":[17,116,17,50,156,232,99,197,250,185,196,122,251,222,240,225,227,165,176,53]},"announce":[],"urlList":[]}}